
<svg width="64" height="64" viewBox="0 0 64 64" fill="none" xmlns="http://www.w3.org/2000/svg">
  <circle cx="32" cy="32" r="30" stroke="#9C27B0" stroke-width="4" fill="#F3E5F5"/>
  <path d="M32 10C39.732 10 46 16.268 46 24H42C42 18.4772 37.5228 14 32 14V10Z" fill="#BA68C8"/>
  <path d="M24 32C24 26.4772 28.4772 22 34 22C39.5228 22 44 26.4772 44 32C44 37.5228 39.5228 42 34 42H32V36C32 34.3431 30.6569 33 29 33H24V32Z" fill="#CE93D8"/>
  <path d="M18 44C18 38 23 33 29 33C35 33 40 38 40 44H36C36 40.6863 33.3137 38 30 38C26.6863 38 24 40.6863 24 44H18Z" fill="#E1BEE7"/>
  <path d="M14 20C14 20 20 16 26 18C30 19.5 34 26 34 26C34 26 30 18 24 16C18 14 14 20 14 20Z" fill="#7B1FA2"/>
  <text x="50%" y="90%" text-anchor="middle" fill="#6A1B9A" font-size="10" font-family="Arial" font-weight="bold">AQI</text>
</svg>
