<svg xmlns="http://www.w3.org/2000/svg" shape-rendering="geometricPrecision" text-rendering="geometricPrecision" image-rendering="optimizeQuality" fill-rule="evenodd" clip-rule="evenodd" viewBox="0 0 512 512"><g fill-rule="nonzero"><path fill="#71D4ED" d="M200.472 312.713l-60.867-3.41a7.973 7.973 0 01-5.201-13.599l-.012-.013 40.23-40.231-40.632-45.455a7.962 7.962 0 015.932-13.268v-.033h56.882l3.41-60.867a7.973 7.973 0 0113.599-5.201l.013-.013 40.231 40.231 45.455-40.632a7.962 7.962 0 0111.24.624 7.925 7.925 0 012.027 5.308h.034v56.882l60.867 3.41a7.972 7.972 0 015.201 13.598l.012.013-40.23 40.231 40.632 45.456a7.962 7.962 0 01-.624 11.24 7.93 7.93 0 01-5.308 2.027v.034h-56.882l-3.41 60.866a7.974 7.974 0 01-13.599 5.201l-.013.013-40.231-40.231-45.455 40.633a7.962 7.962 0 01-11.24-.624 7.925 7.925 0 01-2.027-5.308h-.034v-56.882zm-42.166-18.334l50.159 2.803a7.994 7.994 0 017.993 7.993v46.598l37.273-33.319.176-.182a7.993 7.993 0 0111.302 0l32.938 32.939 2.803-50.159a7.994 7.994 0 017.993-7.993h46.598l-33.318-37.274-.183-.175a7.993 7.993 0 010-11.302l32.939-32.939-50.159-2.802a7.994 7.994 0 01-7.993-7.993v-46.598l-37.273 33.318-.176.182a7.993 7.993 0 01-11.302 0l-32.938-32.938-2.803 50.159a7.994 7.994 0 01-7.993 7.993h-46.598l33.318 37.273.183.176a7.992 7.992 0 010 11.301l-32.939 32.939z"/><path fill="#38C0F2" d="M113.432 383.781l-32.997-.526c-5.653-.088-10.163-4.744-10.075-10.396.088-5.653 4.743-10.163 10.396-10.075l52.83.843 100.743-100.743H92.764l-36.76 39.628c-3.857 4.146-10.345 4.379-14.49.522-4.145-3.857-4.379-10.345-.522-14.49l23.802-25.66H10.276C4.601 262.884 0 258.283 0 252.609c0-5.675 4.601-10.277 10.276-10.277h53.816l-22.941-23.684c-3.945-4.056-3.855-10.545.202-14.49 4.056-3.945 10.544-3.855 14.49.201l36.782 37.973h138.944l-97.629-97.628-54.011 2.028c-5.652.199-10.398-4.222-10.597-9.874-.2-5.652 4.221-10.397 9.874-10.597l34.978-1.313-38.561-38.561c-4.012-4.013-4.012-10.519 0-14.531 4.012-4.013 10.518-4.013 14.531 0l38.064 38.064.527-32.998c.088-5.652 4.744-10.163 10.396-10.075 5.652.088 10.163 4.744 10.075 10.396l-.842 52.832 97.471 97.472V85.599l-37.973-36.781c-4.057-3.945-4.146-10.434-.201-14.49 3.945-4.057 10.434-4.147 14.49-.202l23.684 22.941V10.276C245.845 4.601 250.446 0 256.121 0s10.276 4.601 10.276 10.276v47.493l25.659-23.803c4.145-3.857 10.633-3.623 14.49.522 3.857 4.146 3.623 10.633-.522 14.49l-39.627 36.761v145.077l103.225-103.225-.843-52.831c-.088-5.653 4.423-10.308 10.075-10.396 5.652-.088 10.308 4.423 10.396 10.075l.526 32.998 33.098-33.098c4.012-4.012 10.518-4.012 14.531 0 4.012 4.013 4.012 10.519 0 14.532l-33.595 33.594 34.981 1.313c5.652.199 10.073 4.945 9.874 10.597-.2 5.653-4.945 10.073-10.597 9.874l-54.014-2.028-100.111 100.111h142.458l36.781-37.973c3.945-4.056 10.434-4.146 14.49-.201 4.057 3.945 4.147 10.434.201 14.49l-22.94 23.684h46.791c5.675 0 10.276 4.602 10.276 10.277 0 5.674-4.601 10.275-10.276 10.275h-47.493l23.803 25.66c3.857 4.145 3.623 10.633-.522 14.49-4.146 3.857-10.633 3.624-14.491-.522l-36.76-39.628H281.183L384.409 366.11l52.832-.843c5.652-.088 10.308 4.423 10.396 10.075.088 5.653-4.423 10.308-10.075 10.396l-33 .526 33.098 33.097c4.013 4.013 4.013 10.519 0 14.531-4.012 4.013-10.518 4.013-14.531 0l-33.594-33.594-1.313 34.98c-.199 5.653-4.945 10.073-10.597 9.874-5.653-.2-10.073-4.945-9.874-10.597l2.029-54.013L266.397 277.16v142.076l39.627 36.76c4.145 3.857 4.379 10.345.522 14.49-3.857 4.145-10.345 4.379-14.49.522l-25.659-23.802v54.519c0 5.675-4.601 10.276-10.276 10.276s-10.276-4.601-10.276-10.276v-53.817l-23.684 22.94c-4.056 3.945-10.545 3.855-14.49-.201-3.945-4.057-3.856-10.546.201-14.491l37.973-36.78V280.43l-97.629 97.629 2.029 54.013c.199 5.652-4.222 10.398-9.874 10.597-5.653.199-10.398-4.222-10.597-9.874l-1.314-34.98-38.562 38.562c-4.012 4.012-10.518 4.012-14.531 0-4.012-4.013-4.012-10.518 0-14.531l38.065-38.065z"/></g></svg>