<svg xmlns="http://www.w3.org/2000/svg" shape-rendering="geometricPrecision" text-rendering="geometricPrecision" image-rendering="optimizeQuality" fill-rule="evenodd" clip-rule="evenodd" viewBox="0 0 512 436.79"><path fill="#FFC106" fill-rule="nonzero" d="M284.02 14.56c-1.62-6.19 2.11-12.55 8.3-14.18 6.2-1.62 12.55 2.09 14.18 8.3l7.51 28.87c1.63 6.2-2.1 12.55-8.3 14.18-6.2 1.62-12.55-2.09-14.17-8.3l-7.52-28.87zm79.26 61.61c27.67 7.63 49.62 25.75 62.76 48.89 13.12 23.15 17.43 51.3 9.8 78.97-6.73 24.4-21.62 44.34-40.91 57.72-.69-8.68-2.51-17.24-5.36-25.38-4.83-13.79-12.63-26.44-22.89-36.55-17.62-17.37-42.25-27.31-71.41-23.06-11.94-23.35-29.76-40.42-50.29-51.32 9.41-16.77 23.14-30.29 39.33-39.48 23.15-13.12 51.3-17.43 78.97-9.79zm8.54-65.74c1.71-6.2 8.12-9.84 14.33-8.13 6.19 1.71 9.84 8.12 8.12 14.32l-7.93 28.76c-1.71 6.2-8.12 9.84-14.32 8.12-6.2-1.71-9.84-8.12-8.13-14.32l7.93-28.75zm78.15 40.37c4.55-4.49 11.89-4.45 16.4.09 4.49 4.55 4.46 11.89-.09 16.4l-21.26 20.93c-4.54 4.5-11.88 4.46-16.39-.09-4.5-4.55-4.46-11.89.09-16.39l21.25-20.94zm47.47 73.97c6.19-1.62 12.55 2.11 14.17 8.3 1.64 6.2-2.08 12.55-8.29 14.18l-28.87 7.51c-6.2 1.63-12.54-2.1-14.18-8.3-1.62-6.2 2.09-12.55 8.3-14.18l28.87-7.51zm4.13 87.8c6.21 1.71 9.84 8.12 8.13 14.33-1.71 6.19-8.12 9.83-14.32 8.12l-28.76-7.93c-6.2-1.71-9.84-8.12-8.12-14.32 1.71-6.2 8.12-9.84 14.32-8.13l28.75 7.93zm-40.37 78.15c4.49 4.55 4.45 11.89-.09 16.4-4.55 4.49-11.89 4.46-16.4-.09l-20.93-21.26c-4.5-4.54-4.46-11.88.09-16.39 4.55-4.5 11.89-4.46 16.4.09l20.93 21.25zM210.05 62.03c-4.49-4.55-4.45-11.89.1-16.4 4.54-4.49 11.88-4.46 16.39.09l20.93 21.26c4.5 4.54 4.46 11.88-.09 16.39-4.54 4.5-11.89 4.46-16.39-.09l-20.94-21.25z"/><path fill="#FFD205" fill-rule="nonzero" d="M363.28 76.17c22.11 6.1 40.57 18.9 53.8 35.6l-108.64 64.01c-4.28.01-8.67.33-13.17.98-11.94-23.35-29.76-40.42-50.29-51.32 9.41-16.77 23.14-30.29 39.33-39.48 23.15-13.12 51.3-17.43 78.97-9.79z"/><path fill="#257FC4" fill-rule="nonzero" d="M295.27 176.76c29.16-4.25 53.79 5.69 71.41 23.06 10.26 10.11 18.06 22.76 22.89 36.55 4.8 13.71 6.69 28.6 5.16 43.29-3.09 29.7-19.87 58.55-54.28 75.43-21.23 10.4-30.41 10.39-51.03 10.37h-2.79v.05H94.85v-.05l-4.7.02c-13.65.08-23.41.15-38.31-5.93-20.29-8.27-35.18-23.4-43.67-41.24-6.5-13.63-9.24-28.93-7.79-44 1.46-15.17 7.19-30.06 17.63-42.78 11.62-14.17 28.98-25.52 52.6-31.27 7.14-27.79 22.17-49.24 41.42-64.18 18.13-14.07 39.99-22.26 62.47-24.43 22.37-2.16 45.42 1.66 66.08 11.56 22.38 10.74 41.9 28.55 54.69 53.55z"/><path fill="#88DFF3" d="M301.96 188.95c80.38-6.7 116.19 113.75 32.85 154.62-19.45 9.54-27.59 9.06-48.18 9.06H94.85c-14.77 0-23.95.8-38.18-5-60.22-24.56-64.16-120.88 24.66-136.46C101.01 107.6 236.56 94.76 282.7 180.52c-6.01 2.12-11.81 4.86-17.34 8.13-11.68 6.92-22.15 16.27-30.6 27.28-2.16 2.82-1.61 6.85 1.2 9 2.82 2.15 6.86 1.61 9.01-1.2 7.44-9.69 16.66-17.92 26.93-24.01 9.35-5.53 19.55-9.29 30.06-10.77z"/><path fill="#A3EDFD" d="M302.26 188.91c21.34-1.7 39.52 5.57 53.15 17.93 12.26 41.37-5.41 92.97-69.91 107.94H52.6c-15.12-1.92-27.82-7.8-37.79-16.13-8.57-35.78 10.55-77.66 66.52-87.48 19.68-103.58 155.23-116.41 201.37-30.65-6 2.12-11.81 4.86-17.34 8.13-11.68 6.92-22.15 16.27-30.6 27.28-2.16 2.82-1.61 6.85 1.2 9 2.82 2.15 6.86 1.61 9.01-1.2 7.44-9.69 16.66-17.92 26.93-24.01 9.44-5.58 19.75-9.37 30.36-10.81z"/><path fill="#fff" d="M249.95 175.63c.65-34.21-82-54.97-116.18-1.07 37.02-21.42 81.45-21.33 116.18 1.07z"/><path fill="#257FC4" fill-rule="nonzero" d="M246.59 325.12a6.5 6.5 0 11-13 0c0-11.14 4.52-21.24 11.83-28.55 7.31-7.3 17.41-11.83 28.55-11.83s21.24 4.53 28.55 11.83c7.31 7.31 11.83 17.41 11.83 28.55 0 11.13-4.52 21.22-11.83 28.53-7.31 7.33-17.41 11.85-28.55 11.85H107.5a6.496 6.496 0 010-12.99h166.47c7.56 0 14.41-3.07 19.36-8.02 4.96-4.94 8.02-11.8 8.02-19.37 0-7.56-3.06-14.41-8.02-19.36a27.306 27.306 0 00-19.36-8.02c-7.56 0-14.41 3.07-19.36 8.02a27.265 27.265 0 00-8.02 19.36zm-11.22 81.85a6.5 6.5 0 1113 0c0 4.64 1.88 8.86 4.92 11.9l.29.31c3 2.86 7.09 4.62 11.61 4.62 4.65 0 8.86-1.88 11.91-4.92 3.03-3.04 4.91-7.26 4.91-11.91 0-4.64-1.88-8.85-4.92-11.9a16.812 16.812 0 00-11.9-4.92H184.2a6.5 6.5 0 110-13h80.99c8.23 0 15.69 3.34 21.09 8.73 5.39 5.4 8.73 12.86 8.73 21.09 0 8.22-3.34 15.66-8.73 21.06l-.03.03c-5.4 5.39-12.85 8.73-21.06 8.73-8.01 0-15.3-3.18-20.67-8.35l-.42-.38a29.756 29.756 0 01-8.73-21.09zm-70.41-29.82c3.58 0 6.49 2.91 6.49 6.5 0 3.58-2.91 6.5-6.49 6.5h-14.43a6.5 6.5 0 110-13h14.43zm11.97-69.27a6.5 6.5 0 11-13 0c0-8.21 3.34-15.66 8.73-21.06v-.02c5.4-5.4 12.86-8.74 21.09-8.74 8.2 0 15.65 3.34 21.06 8.74l.03.03c5.4 5.42 8.74 12.86 8.74 21.05 0 8.24-3.35 15.7-8.74 21.09l-.42.38c-5.36 5.17-12.65 8.36-20.67 8.36h-75.51a6.5 6.5 0 110-13h75.51c4.51 0 8.6-1.77 11.62-4.63l.28-.3c3.04-3.04 4.93-7.25 4.93-11.9 0-4.66-1.88-8.86-4.91-11.89l-.02-.03c-3.03-3.02-7.24-4.9-11.9-4.9-4.64 0-8.85 1.88-11.89 4.93a16.703 16.703 0 00-4.93 11.89zm-76.24 16.83a6.5 6.5 0 110 13H91.7a6.5 6.5 0 110-13h8.99z"/></svg>