<svg xmlns="http://www.w3.org/2000/svg" shape-rendering="geometricPrecision" text-rendering="geometricPrecision" image-rendering="optimizeQuality" fill-rule="evenodd" clip-rule="evenodd" viewBox="0 0 512 454.73"><path fill="#3E3E3E" fill-rule="nonzero" d="M240.27 119.01c2.93-25.95 13.03-49.75 28.26-69.34 18.65-23.99 45.03-41.7 75.43-49.4 2.81-.68 5.9-.08 8.31 1.89 4.04 3.32 4.62 9.28 1.3 13.32-7.38 9-13.29 19.34-17.32 30.64-3.86 10.82-5.97 22.5-5.97 34.68 0 28.47 11.54 54.25 30.19 72.9 18.66 18.65 44.43 30.2 72.9 30.2 11.74 0 23.01-1.96 33.48-5.55 10.77-3.7 20.7-9.09 29.45-15.84a9.484 9.484 0 018.78-1.98c5.04 1.41 7.98 6.65 6.57 11.69-6.93 24.72-20.54 46.66-38.76 63.72-15.95 14.95-35.45 26.17-57.1 32.27.7 6.96.71 14.01-.02 21.02-3.25 31.28-20.92 61.66-57.17 79.44-22.36 10.96-32.03 10.95-53.75 10.93h-2.94v.05h-202v-.05l-4.95.02c-14.38.09-24.66.15-40.36-6.25-21.36-8.71-37.05-24.65-46-43.43-6.84-14.37-9.73-30.48-8.2-46.35 1.54-15.98 7.58-31.67 18.57-45.07 12.24-14.92 30.52-26.88 55.4-32.93 7.52-29.27 23.35-51.87 43.63-67.6 19.1-14.82 42.12-23.44 65.81-25.73 18.91-1.83 38.29.4 56.46 6.75z"/><path fill="#E5C640" d="M414.41 258.75c42.62-12.46 76.12-46.28 88.11-89.09-19.08 14.87-43.08 23.73-69.15 23.73-62.18 0-112.59-50.41-112.59-112.59 0-27.07 9.56-51.91 25.48-71.33-52.18 13.22-91.7 58.19-96.81 113.15 1.33.58 2.65 1.19 3.95 1.82 23.57 11.31 44.14 30.06 57.61 56.4 30.71-4.48 56.65 5.99 75.21 24.28 10.81 10.66 19.03 23.98 24.12 38.51 1.72 4.91 3.08 9.98 4.07 15.12z"/><path fill="#FEDC47" d="M286.61 147.6c-.4-24.55 5.64-49.53 18.82-72.35 5.73-9.93 12.5-18.9 20.08-26.84 4.32-14.41 11.45-27.6 20.75-38.94-52.18 13.22-91.7 58.19-96.81 113.15 1.33.58 2.65 1.19 3.95 1.82 12.04 5.77 23.29 13.49 33.21 23.16z"/><path fill="#D4D1D1" d="M318.06 193.67c84.66-7.05 122.38 119.82 34.6 162.86-20.5 10.05-29.07 9.55-50.75 9.55h-202c-15.56 0-25.23.84-40.22-5.27-63.42-25.86-67.58-127.32 25.98-143.73 20.73-109.09 163.5-122.61 212.09-32.28-6.32 2.23-12.43 5.12-18.25 8.56-12.31 7.29-23.34 17.14-32.24 28.73a6.771 6.771 0 001.27 9.49 6.79 6.79 0 009.49-1.27c7.83-10.21 17.54-18.87 28.37-25.29 9.84-5.83 20.59-9.79 31.66-11.35z"/><path fill="#ECE8E8" d="M318.37 193.63c22.48-1.79 41.63 5.88 55.98 18.89 12.91 43.57-5.69 97.92-73.63 113.69H55.4c-15.92-2.02-29.3-8.21-39.8-16.99-9.03-37.69 11.11-81.8 70.07-92.14 20.72-109.1 163.5-122.61 212.1-32.28-6.33 2.23-12.44 5.12-18.26 8.56-12.31 7.29-23.34 17.14-32.24 28.73a6.771 6.771 0 001.27 9.49 6.79 6.79 0 009.49-1.27c7.83-10.21 17.54-18.87 28.37-25.29 9.94-5.88 20.79-9.87 31.97-11.39z"/><path fill="#fff" d="M263.28 179.65c.68-36.03-86.38-57.9-122.38-1.13 38.99-22.56 85.79-22.47 122.38 1.13z"/><path fill="#3E3E3E" fill-rule="nonzero" d="M234.28 423.32c0-3.78 3.06-6.85 6.84-6.85s6.85 3.07 6.85 6.85c0 4.89 1.99 9.33 5.19 12.53l.3.33c3.16 3.01 7.47 4.86 12.23 4.86a17.684 17.684 0 0017.72-17.72c0-4.89-1.99-9.33-5.19-12.53a17.662 17.662 0 00-12.53-5.19h-85.31c-3.78 0-6.85-3.07-6.85-6.85s3.07-6.84 6.85-6.84h85.31c8.67 0 16.53 3.52 22.21 9.2s9.2 13.53 9.2 22.21c0 8.65-3.52 16.5-9.2 22.18l-.03.03c-5.69 5.68-13.53 9.2-22.18 9.2-8.44 0-16.12-3.35-21.77-8.8l-.44-.4c-5.68-5.68-9.2-13.54-9.2-22.21zm-61.56-104.37c0 3.78-3.07 6.85-6.84 6.85-3.78 0-6.85-3.07-6.85-6.85 0-8.65 3.52-16.5 9.2-22.18v-.03c5.68-5.68 13.54-9.2 22.21-9.2 8.64 0 16.49 3.52 22.18 9.2l.03.03c5.69 5.71 9.21 13.55 9.21 22.18 0 8.67-3.52 16.53-9.21 22.21l-.43.4c-5.66 5.45-13.33 8.8-21.78 8.8h-79.53c-3.78 0-6.85-3.06-6.85-6.84s3.07-6.85 6.85-6.85h79.53c4.75 0 9.06-1.86 12.24-4.87l.29-.32c3.21-3.2 5.2-7.64 5.2-12.53 0-4.91-1.98-9.34-5.17-12.53l-.03-.03a17.691 17.691 0 00-12.53-5.16c-4.89 0-9.32 1.98-12.53 5.19a17.61 17.61 0 00-5.19 12.53zm-80.3 17.72c3.78 0 6.85 3.07 6.85 6.85s-3.07 6.84-6.85 6.84h-9.47c-3.78 0-6.85-3.06-6.85-6.84s3.07-6.85 6.85-6.85h9.47zm153.68.44c0 3.78-3.07 6.84-6.85 6.84s-6.84-3.06-6.84-6.84c0-11.74 4.76-22.38 12.46-30.07 7.69-7.7 18.33-12.46 30.07-12.46 11.73 0 22.37 4.76 30.07 12.46 7.69 7.69 12.46 18.33 12.46 30.07 0 11.72-4.77 22.35-12.46 30.05-7.7 7.72-18.34 12.48-30.07 12.48H99.6c-3.78 0-6.85-3.06-6.85-6.84s3.07-6.85 6.85-6.85h175.34c7.96 0 15.17-3.23 20.39-8.44a28.738 28.738 0 008.45-20.4c0-7.97-3.23-15.18-8.45-20.4-5.22-5.21-12.43-8.44-20.39-8.44-7.97 0-15.18 3.23-20.4 8.44a28.747 28.747 0 00-8.44 20.4zm-85.99 54.8c3.78 0 6.85 3.06 6.85 6.84s-3.07 6.85-6.85 6.85h-15.19c-3.78 0-6.85-3.07-6.85-6.85s3.07-6.84 6.85-6.84h15.19z"/></svg>